<svg width="26" height="26" viewBox="0 0 26 26" fill="none" xmlns="http://www.w3.org/2000/svg">
<g id="Github_white">
<g id="Github">
<path id="Fill-51" d="M13.0234 0.0974731C5.85795 0.0974731 0.0474854 6.00592 0.0474854 13.2949C0.0474854 19.126 3.76549 24.0731 8.92122 25.8182C9.56972 25.9403 9.8078 25.5319 9.8078 25.1833C9.8078 24.8686 9.79577 23.829 9.79018 22.7262C6.18026 23.5245 5.41853 21.169 5.41853 21.169C4.82826 19.6435 3.97778 19.2379 3.97778 19.2379C2.80048 18.4188 4.06653 18.4356 4.06653 18.4356C5.36954 18.5285 6.05563 19.7957 6.05563 19.7957C7.21296 21.8133 9.09119 21.23 9.83165 20.8928C9.94811 20.04 10.2844 19.4573 10.6555 19.128C7.77335 18.7943 4.7436 17.6626 4.7436 12.6056C4.7436 11.1647 5.25049 9.98743 6.08056 9.06319C5.94583 8.73056 5.50168 7.38846 6.20626 5.57057C6.20626 5.57057 7.2959 5.21587 9.77557 6.92339C10.8106 6.63097 11.9207 6.48432 13.0234 6.4793C14.1262 6.48432 15.2371 6.63097 16.2741 6.92339C18.7507 5.21587 19.8389 5.57057 19.8389 5.57057C20.5452 7.38846 20.1008 8.73056 19.9661 9.06319C20.7981 9.98743 21.3015 11.1647 21.3015 12.6056C21.3015 17.6746 18.266 18.7908 15.3765 19.1175C15.8419 19.5271 16.2567 20.3302 16.2567 21.5615C16.2567 23.3272 16.2416 24.7484 16.2416 25.1833C16.2416 25.5345 16.4752 25.946 17.1329 25.8164C22.2859 24.0694 25.9991 19.1241 25.9991 13.2949C25.9991 6.00592 20.1895 0.0974731 13.0234 0.0974731Z" fill="white"/>
<path id="Fill-52" d="M4.96214 19.0463C4.93356 19.112 4.83214 19.1315 4.73974 19.0865C4.64562 19.0434 4.59276 18.954 4.62328 18.8882C4.65121 18.8207 4.75285 18.8021 4.84675 18.8469C4.94108 18.8902 4.9948 18.9805 4.96214 19.0463Z" fill="white"/>
<path id="Fill-53" d="M5.4877 19.6424C5.42582 19.7008 5.30484 19.6737 5.22276 19.5815C5.13788 19.4895 5.12198 19.3664 5.18473 19.3072C5.24854 19.2488 5.36587 19.2761 5.45096 19.3682C5.53583 19.4613 5.55238 19.5834 5.4877 19.6424Z" fill="white"/>
<path id="Fill-54" d="M5.99934 20.4025C5.91983 20.4587 5.78983 20.406 5.70947 20.2887C5.62997 20.1713 5.62997 20.0306 5.71119 19.9742C5.79177 19.9178 5.91983 19.9685 6.00127 20.085C6.08056 20.2041 6.08056 20.3451 5.99934 20.4025Z" fill="white"/>
<path id="Fill-55" d="M6.70027 21.1369C6.62914 21.2167 6.47766 21.1952 6.36678 21.0864C6.25332 20.98 6.22174 20.8289 6.29308 20.7492C6.36506 20.6692 6.51741 20.6917 6.62914 20.7997C6.74174 20.9059 6.77612 21.058 6.70027 21.1369Z" fill="white"/>
<path id="Fill-56" d="M7.6672 21.5633C7.63583 21.6667 7.48993 21.7136 7.34295 21.6697C7.19619 21.6245 7.10014 21.5034 7.1298 21.3989C7.16031 21.2949 7.30685 21.2459 7.4549 21.2929C7.60145 21.338 7.69771 21.4582 7.6672 21.5633Z" fill="white"/>
<path id="Fill-57" d="M8.72911 21.6424C8.73277 21.7512 8.60814 21.8415 8.45386 21.8432C8.29872 21.8469 8.17323 21.7589 8.17151 21.6518C8.17151 21.5419 8.29334 21.4525 8.44848 21.4498C8.60276 21.4468 8.72911 21.5342 8.72911 21.6424Z" fill="white"/>
<path id="Fill-58" d="M9.71734 21.4713C9.73581 21.5775 9.62859 21.6865 9.47538 21.7154C9.32476 21.7436 9.1853 21.678 9.16618 21.5727C9.14748 21.4638 9.25664 21.3548 9.40705 21.3266C9.56048 21.2995 9.69778 21.3633 9.71734 21.4713Z" fill="white"/>
</g>
</g>
</svg>
