<svg width="26" height="26" viewBox="0 0 26 26" fill="none" xmlns="http://www.w3.org/2000/svg">
<circle cx="13" cy="13" r="13" fill="white"/>
<path d="M16 6.5H10C9.07205 6.50099 8.18238 6.87006 7.52622 7.52622C6.87006 8.18238 6.50099 9.07205 6.5 10V16C6.50099 16.928 6.87006 17.8176 7.52622 18.4738C8.18238 19.1299 9.07205 19.499 10 19.5H16C16.928 19.499 17.8176 19.1299 18.4738 18.4738C19.1299 17.8176 19.499 16.928 19.5 16V10C19.499 9.07205 19.1299 8.18238 18.4738 7.52622C17.8176 6.87006 16.928 6.50099 16 6.5ZM13 16C12.4067 16 11.8266 15.8241 11.3333 15.4944C10.8399 15.1648 10.4554 14.6962 10.2284 14.1481C10.0013 13.5999 9.94189 12.9967 10.0576 12.4147C10.1734 11.8328 10.4591 11.2982 10.8787 10.8787C11.2982 10.4591 11.8328 10.1734 12.4147 10.0576C12.9967 9.94189 13.5999 10.0013 14.1481 10.2284C14.6962 10.4554 15.1648 10.8399 15.4944 11.3333C15.8241 11.8266 16 12.4067 16 13C15.9992 13.7954 15.6828 14.558 15.1204 15.1204C14.558 15.6828 13.7954 15.9992 13 16ZM16.75 10C16.6017 10 16.4567 9.95601 16.3333 9.8736C16.21 9.79119 16.1139 9.67406 16.0571 9.53701C16.0003 9.39997 15.9855 9.24917 16.0144 9.10368C16.0434 8.9582 16.1148 8.82456 16.2197 8.71967C16.3246 8.61478 16.4582 8.54335 16.6037 8.51441C16.7492 8.48547 16.9 8.50032 17.037 8.55709C17.1741 8.61386 17.2912 8.70999 17.3736 8.83332C17.456 8.95666 17.5 9.10166 17.5 9.25C17.5 9.44891 17.421 9.63968 17.2803 9.78033C17.1397 9.92098 16.9489 10 16.75 10ZM15 13C15 13.3956 14.8827 13.7822 14.6629 14.1111C14.4432 14.44 14.1308 14.6964 13.7654 14.8478C13.3999 14.9991 12.9978 15.0387 12.6098 14.9616C12.2219 14.8844 11.8655 14.6939 11.5858 14.4142C11.3061 14.1345 11.1156 13.7781 11.0384 13.3902C10.9613 13.0022 11.0009 12.6001 11.1522 12.2346C11.3036 11.8692 11.56 11.5568 11.8889 11.3371C12.2178 11.1173 12.6044 11 13 11C13.5304 11 14.0391 11.2107 14.4142 11.5858C14.7893 11.9609 15 12.4696 15 13Z" fill="#32304C"/>
</svg>
