<svg width="26" height="26" viewBox="0 0 26 26" fill="none" xmlns="http://www.w3.org/2000/svg">
<g id="10186831_upwork_icon 1" clip-path="url(#clip0_133_104)">
<g id="Layer_x0020_1">
<path id="Vector" d="M13.0039 26.0078C20.1858 26.0078 26.0078 20.1858 26.0078 13.0039C26.0078 5.82204 20.1858 0 13.0039 0C5.82204 0 0 5.82204 0 13.0039C0 20.1858 5.82204 26.0078 13.0039 26.0078Z" fill="white"/>
<g id="_606153520">
<path id="Vector_2" fill-rule="evenodd" clip-rule="evenodd" d="M17.6005 14.681C16.9133 14.681 16.2627 14.4052 15.6762 13.9569L15.8228 13.3276L15.832 13.3017C15.9603 12.6293 16.3543 11.5 17.6005 11.5C18.5351 11.5 19.2865 12.2155 19.2865 13.0948C19.2865 13.9655 18.5351 14.681 17.6005 14.681ZM17.6005 9.89655C16.0153 9.89655 14.7874 10.8621 14.2834 12.4655C13.5229 11.3879 12.9365 10.0862 12.6066 9H10.8931V13.181C10.8931 14.0086 10.1784 14.6724 9.29872 14.681C8.42822 14.6724 7.7135 14.0086 7.7135 13.181V9H6V13.181C6 14.8966 7.48442 16.2931 9.29872 16.2931C11.1222 16.2931 12.6066 14.8966 12.6066 13.181V12.4828C12.9365 13.1293 13.3396 13.7931 13.8345 14.3707L12.7899 19H14.54L15.3005 15.6466C15.9603 16.0431 16.73 16.2931 17.6005 16.2931C19.4789 16.2931 21 14.8534 21 13.0948C21 11.3276 19.4789 9.89655 17.6005 9.89655Z" fill="#32304C"/>
</g>
</g>
</g>
<defs>
<clipPath id="clip0_133_104">
<rect width="26" height="26" fill="white"/>
</clipPath>
</defs>
</svg>
